<?xml version="1.0" standalone="no"?>
<!DOCTYPE svg PUBLIC "-//W3C//DTD SVG 20010904//EN"
 "http://www.w3.org/TR/2001/REC-SVG-20010904/DTD/svg10.dtd">
<svg version="1.0" xmlns="http://www.w3.org/2000/svg"
 width="100.000000pt" height="110.000000pt" viewBox="0 0 100.000000 110.000000"
 preserveAspectRatio="xMidYMid meet">

<g transform="translate(0.000000,110.000000) scale(0.100000,-0.100000)"
fill="#000000" stroke="none">
<path d="M510 1059 c-39 -16 -69 -49 -79 -88 -13 -49 -17 -196 -6 -196 5 0 11
43 13 95 5 140 34 180 127 180 61 0 106 -25 125 -69 10 -25 11 -53 3 -124 -10
-94 -9 -112 8 -102 5 4 9 57 9 120 0 107 -1 115 -26 144 -37 45 -116 63 -174
40z"/>
<path d="M803 863 c-75 -3 -83 -6 -83 -23 0 -18 7 -20 59 -20 l59 0 20 -47
c72 -173 59 -405 -37 -634 -23 -55 -26 -68 -11 -49 34 43 98 182 120 260 27
96 37 263 21 355 -12 69 -48 167 -60 163 -3 -1 -43 -4 -88 -5z"/>
<path d="M465 840 c-13 -5 23 -9 98 -9 72 -1 117 3 117 9 0 12 -186 12 -215 0z"/>
<path d="M450 650 c-10 -6 -16 -33 -18 -84 -4 -72 -3 -76 17 -76 17 0 21 6 21
29 0 25 14 41 36 41 3 0 2 -16 -2 -35 -6 -33 -5 -35 20 -35 26 0 26 0 26 85 0
78 -2 85 -20 85 -16 0 -20 -7 -20 -35 0 -29 -4 -35 -21 -35 -18 0 -21 4 -16
30 7 32 -2 43 -23 30z"/>
<path d="M590 640 c-11 -11 -20 -28 -21 -37 0 -10 -2 -29 -5 -42 -9 -49 43
-88 83 -63 16 10 33 57 33 93 0 31 -30 69 -55 69 -8 0 -24 -9 -35 -20z m50
-51 c0 -41 -19 -77 -31 -58 -7 13 -6 33 8 82 7 26 23 10 23 -24z"/>
<path d="M66 613 c-3 -21 -6 -57 -6 -80 l0 -43 55 0 c48 0 55 2 55 20 0 16 -7
20 -35 20 -43 0 -46 16 -5 25 40 9 40 35 -1 35 -39 0 -29 16 16 24 21 4 35 13
35 21 0 11 -13 15 -54 15 l-53 0 -7 -37z"/>
<path d="M332 638 c-21 -21 -14 -64 13 -82 33 -22 32 -37 -2 -34 -20 2 -28 -2
-28 -12 0 -19 61 -26 81 -9 22 18 17 55 -11 77 -25 20 -33 42 -15 42 6 0 10
-4 10 -10 0 -5 9 -10 20 -10 23 0 24 4 10 31 -12 22 -59 26 -78 7z"/>
<path d="M707 643 c-10 -17 -19 -104 -13 -128 8 -32 36 -33 36 -1 0 18 7 25
30 30 39 7 58 45 42 81 -10 21 -19 25 -51 25 -22 0 -42 -3 -44 -7z m58 -33 c7
-12 -12 -40 -26 -40 -10 0 -12 34 -2 43 9 10 21 9 28 -3z"/>
<path d="M208 583 c-35 -9 -20 -33 21 -33 49 0 71 8 71 26 0 14 -52 18 -92 7z"/>
<path d="M130 385 c0 -18 5 -25 20 -25 15 0 20 7 20 25 0 18 -5 25 -20 25 -15
0 -20 -7 -20 -25z"/>
<path d="M190 385 c0 -17 5 -25 18 -25 13 0 14 2 4 9 -8 4 -14 12 -14 16 0 4
6 12 14 16 10 7 9 9 -4 9 -13 0 -18 -8 -18 -25z"/>
<path d="M240 395 c0 -8 6 -15 13 -15 8 0 7 -4 -3 -10 -13 -8 -13 -10 2 -10
23 0 33 19 13 26 -13 6 -14 8 -3 15 10 7 9 9 -4 9 -10 0 -18 -7 -18 -15z"/>
<path d="M298 383 c5 -23 7 -25 10 -8 2 11 9 23 16 27 6 5 3 8 -10 8 -18 0
-20 -4 -16 -27z"/>
<path d="M370 385 c0 -18 5 -25 20 -25 15 0 20 7 20 25 0 18 -5 25 -20 25 -15
0 -20 -7 -20 -25z m30 6 c0 -6 -4 -13 -10 -16 -5 -3 -10 1 -10 9 0 9 5 16 10
16 6 0 10 -4 10 -9z"/>
<path d="M430 386 c0 -19 5 -26 20 -26 15 0 20 6 19 28 l-1 27 -8 -25 c-5 -16
-8 -19 -9 -8 -2 28 -21 31 -21 4z"/>
<path d="M504 394 c3 -8 2 -12 -4 -9 -6 3 -10 0 -10 -7 0 -8 9 -14 20 -14 13
0 19 5 15 14 -3 7 -5 18 -5 23 0 5 -5 9 -11 9 -6 0 -8 -7 -5 -16z"/>
<path d="M548 404 c-17 -17 -8 -44 15 -44 13 0 17 3 11 8 -7 4 -13 15 -15 25
-2 11 -7 15 -11 11z"/>
<path d="M602 385 c0 -16 2 -22 5 -12 2 9 2 23 0 30 -3 6 -5 -1 -5 -18z"/>
<path d="M626 402 c7 -4 14 -16 16 -27 3 -17 5 -15 10 8 4 23 2 27 -16 27 -13
0 -16 -3 -10 -8z"/>
<path d="M689 391 c6 -10 7 -21 4 -25 -3 -3 -2 -6 4 -6 5 0 15 11 21 25 6 14
8 25 3 25 -5 0 -12 -6 -14 -12 -4 -10 -6 -10 -6 0 -1 6 -6 12 -11 12 -7 0 -7
-6 -1 -19z"/>
<path d="M266 323 c-3 -4 -6 -17 -6 -30 0 -21 2 -22 20 -11 11 7 20 18 20 24
0 14 -25 26 -34 17z"/>
<path d="M325 317 c-3 -9 -7 -23 -9 -31 -3 -9 4 -13 18 -13 16 0 22 5 21 18
-2 29 -23 47 -30 26z"/>
<path d="M377 324 c-4 -4 -7 -18 -7 -31 0 -17 6 -23 21 -23 16 0 20 5 17 27
-3 26 -18 39 -31 27z m23 -30 c0 -8 -4 -12 -10 -9 -5 3 -10 10 -10 16 0 5 5 9
10 9 6 0 10 -7 10 -16z"/>
<path d="M436 323 c-3 -4 -6 -17 -6 -30 0 -31 34 -28 38 3 3 21 -20 39 -32 27z
m24 -22 c0 -6 -4 -13 -10 -16 -5 -3 -10 1 -10 9 0 9 5 16 10 16 6 0 10 -4 10
-9z"/>
<path d="M553 323 c-21 -7 -16 -53 5 -52 10 0 12 3 5 6 -7 2 -13 11 -13 18 0
7 6 15 13 18 6 2 10 7 7 9 -3 3 -11 3 -17 1z"/>
<path d="M482 298 c2 -13 11 -24 21 -26 13 -3 17 3 16 25 l-1 28 -8 -25 c-8
-24 -8 -24 -9 -2 -1 12 -6 22 -12 22 -6 0 -9 -10 -7 -22z"/>
<path d="M598 295 c2 -14 6 -25 7 -25 1 0 5 11 7 25 3 16 1 25 -7 25 -8 0 -10
-9 -7 -25z"/>
</g>
</svg>
